<svg width="39" height="39" viewBox="0 0 39 39" fill="none" xmlns="http://www.w3.org/2000/svg">
<path d="M26 6.5H29.25C30.112 6.5 30.9386 6.84241 31.5481 7.4519C32.1576 8.0614 32.5 8.88805 32.5 9.75V32.5C32.5 33.362 32.1576 34.1886 31.5481 34.7981C30.9386 35.4076 30.112 35.75 29.25 35.75H9.75C8.88805 35.75 8.0614 35.4076 7.4519 34.7981C6.84241 34.1886 6.5 33.362 6.5 32.5V9.75C6.5 8.88805 6.84241 8.0614 7.4519 7.4519C8.0614 6.84241 8.88805 6.5 9.75 6.5H13" stroke="#12B200" stroke-width="3.25" stroke-linecap="round" stroke-linejoin="round"/>
<path d="M24.375 3.25H14.625C13.7275 3.25 13 3.97754 13 4.875V8.125C13 9.02246 13.7275 9.75 14.625 9.75H24.375C25.2725 9.75 26 9.02246 26 8.125V4.875C26 3.97754 25.2725 3.25 24.375 3.25Z" stroke="#12B200" stroke-width="3.25" stroke-linecap="round" stroke-linejoin="round"/>
</svg>
