<?xml version="1.0" standalone="no"?>
<!DOCTYPE svg PUBLIC "-//W3C//DTD SVG 20010904//EN"
 "http://www.w3.org/TR/2001/REC-SVG-20010904/DTD/svg10.dtd">
<svg version="1.0" xmlns="http://www.w3.org/2000/svg"
 width="206.000000pt" height="168.000000pt" viewBox="0 0 206.000000 168.000000"
 preserveAspectRatio="xMidYMid meet">
<metadata>
Created by potrace 1.16, written by Peter Selinger 2001-2019
</metadata>
<g transform="translate(0.000000,168.000000) scale(0.100000,-0.100000)"
fill="#2671E5" stroke="none">
<path d="M591 1624 c-166 -44 -300 -188 -331 -353 -14 -76 -13 -756 1 -823 37
-173 174 -311 350 -353 51 -12 137 -15 415 -15 198 0 375 4 405 10 126 24 264
122 322 228 53 98 57 134 57 542 0 305 -3 387 -15 435 -43 165 -166 287 -332
330 -82 21 -792 21 -872 -1z m275 -339 c144 -84 114 -292 -48 -345 -21 -6 -38
-14 -38 -16 0 -19 24 -44 51 -53 42 -14 49 -14 49 4 0 24 59 83 95 95 47 16
106 -2 139 -41 14 -17 26 -37 26 -45 0 -10 12 -14 38 -14 33 0 40 5 59 39 22
39 73 71 112 71 73 0 131 -62 131 -141 0 -138 -191 -177 -250 -52 -12 27 -21
33 -47 33 -25 0 -36 -6 -47 -27 -54 -106 -194 -110 -243 -8 -11 23 -24 35 -37
35 -12 0 -34 7 -50 15 -15 8 -30 15 -33 15 -3 0 -3 -50 -1 -111 l3 -111 33
-29 c39 -35 69 -37 81 -6 12 32 64 74 101 82 91 20 175 -72 150 -165 -32 -117
-195 -134 -247 -26 -10 22 -26 37 -42 41 -45 11 -88 44 -105 79 -12 26 -16 67
-16 183 l-1 148 -41 20 c-91 44 -130 144 -94 239 41 106 171 150 272 91z"/>
<path d="M700 1252 c-99 -52 -99 -206 0 -257 63 -32 156 -8 191 49 30 49 26
126 -8 167 -49 58 -120 74 -183 41z m105 -68 c65 -41 74 -57 49 -85 -16 -18
-114 -79 -127 -79 -3 0 -13 7 -21 16 -12 11 -16 35 -16 88 0 108 23 120 115
60z"/>
<path d="M957 910 c-50 -39 -42 -117 15 -146 60 -31 128 13 128 83 0 71 -85
109 -143 63z"/>
<path d="M1285 905 c-33 -32 -33 -84 -1 -122 19 -22 32 -28 66 -28 73 0 110
67 75 134 -16 33 -33 41 -81 41 -24 0 -43 -8 -59 -25z"/>
<path d="M949 601 c-32 -33 -36 -58 -14 -100 29 -56 106 -63 145 -14 71 90
-50 195 -131 114z"/>
</g>
</svg>
