<svg width="67" height="26" viewBox="0 0 67 26" fill="none" xmlns="http://www.w3.org/2000/svg">
<path d="M0 0H67V22.2857H33.5V26H18.6111V22.2857H0V0ZM3.72222 18.5714H11.1667V7.42857H14.8889V18.5714H18.6111V3.71429H3.72222V18.5714ZM22.3333 3.71429V22.2857H29.7778V18.5714H37.2222V3.71429H22.3333ZM29.7778 7.42857H33.5V14.8571H29.7778V7.42857ZM40.9444 3.71429V18.5714H48.3889V7.42857H52.1111V18.5714H55.8333V7.42857H59.5556V18.5714H63.2778V3.71429H40.9444Z" fill="#CB3837"/>
<path d="M3.72222 18.5714H11.1667V7.42857H14.8889V18.5714H18.6111V3.71428H3.72222V18.5714Z" fill="white"/>
<path d="M22.3333 3.71428V22.2857H29.7778V18.5714H37.2222V3.71428H22.3333ZM33.5 14.8571H29.7778V7.42856H33.5V14.8571Z" fill="white"/>
<path d="M40.9444 3.71428V18.5714H48.3889V7.42857H52.1111V18.5714H55.8333V7.42857H59.5556V18.5714H63.2778V3.71428H40.9444Z" fill="white"/>
</svg>
